<svg height="2942" width="720" xmlns="http://www.w3.org/2000/svg">
<rect height="2942" fill="#555" width="720"></rect>
<text fill="#7f7" font-family="Courier New" font-size="12" xml:space="preserve">
<tspan x="10" y="26">25 megabytes installed</tspan>
<tspan x="10" y="42"></tspan>
<tspan x="10" y="58">node_modules</tspan>
<tspan x="10" y="74">└─┬ node-sass-middleware@0.11.0 </tspan>
<tspan x="10" y="90">  ├─┬ mkdirp@0.5.1 </tspan>
<tspan x="10" y="106">  │ └── minimist@0.0.8 </tspan>
<tspan x="10" y="122">  └─┬ node-sass@4.5.2 </tspan>
<tspan x="10" y="138">    ├── async-foreach@0.1.3 </tspan>
<tspan x="10" y="154">    ├─┬ chalk@1.1.3 </tspan>
<tspan x="10" y="170">    │ ├── ansi-styles@2.2.1 </tspan>
<tspan x="10" y="186">    │ ├── escape-string-regexp@1.0.5 </tspan>
<tspan x="10" y="202">    │ ├─┬ has-ansi@2.0.0 </tspan>
<tspan x="10" y="218">    │ │ └── ansi-regex@2.1.1 </tspan>
<tspan x="10" y="234">    │ ├── strip-ansi@3.0.1 </tspan>
<tspan x="10" y="250">    │ └── supports-color@2.0.0 </tspan>
<tspan x="10" y="266">    ├─┬ cross-spawn@3.0.1 </tspan>
<tspan x="10" y="282">    │ ├─┬ lru-cache@4.0.2 </tspan>
<tspan x="10" y="298">    │ │ ├── pseudomap@1.0.2 </tspan>
<tspan x="10" y="314">    │ │ └── yallist@2.1.2 </tspan>
<tspan x="10" y="330">    │ └─┬ which@1.2.14 </tspan>
<tspan x="10" y="346">    │   └── isexe@2.0.0 </tspan>
<tspan x="10" y="362">    ├─┬ gaze@1.1.2 </tspan>
<tspan x="10" y="378">    │ └── globule@1.1.0 </tspan>
<tspan x="10" y="394">    ├── get-stdin@4.0.1 </tspan>
<tspan x="10" y="410">    ├─┬ glob@7.1.1 </tspan>
<tspan x="10" y="426">    │ ├── fs.realpath@1.0.0 </tspan>
<tspan x="10" y="442">    │ ├─┬ inflight@1.0.6 </tspan>
<tspan x="10" y="458">    │ │ └── wrappy@1.0.2 </tspan>
<tspan x="10" y="474">    │ ├── inherits@2.0.3 </tspan>
<tspan x="10" y="490">    │ ├─┬ minimatch@3.0.3 </tspan>
<tspan x="10" y="506">    │ │ └─┬ brace-expansion@1.1.7 </tspan>
<tspan x="10" y="522">    │ │   ├── balanced-match@0.4.2 </tspan>
<tspan x="10" y="538">    │ │   └── concat-map@0.0.1 </tspan>
<tspan x="10" y="554">    │ ├── once@1.4.0 </tspan>
<tspan x="10" y="570">    │ └── path-is-absolute@1.0.1 </tspan>
<tspan x="10" y="586">    ├── in-publish@2.0.0 </tspan>
<tspan x="10" y="602">    ├── lodash.assign@4.2.0 </tspan>
<tspan x="10" y="618">    ├── lodash.clonedeep@4.5.0 </tspan>
<tspan x="10" y="634">    ├── lodash.mergewith@4.6.0 </tspan>
<tspan x="10" y="650">    ├─┬ meow@3.7.0 </tspan>
<tspan x="10" y="666">    │ ├─┬ camelcase-keys@2.1.0 </tspan>
<tspan x="10" y="682">    │ │ └── camelcase@2.1.1 </tspan>
<tspan x="10" y="698">    │ ├── decamelize@1.2.0 </tspan>
<tspan x="10" y="714">    │ ├─┬ loud-rejection@1.6.0 </tspan>
<tspan x="10" y="730">    │ │ ├─┬ currently-unhandled@0.4.1 </tspan>
<tspan x="10" y="746">    │ │ │ └── array-find-index@1.0.2 </tspan>
<tspan x="10" y="762">    │ │ └── signal-exit@3.0.2 </tspan>
<tspan x="10" y="778">    │ ├── map-obj@1.0.1 </tspan>
<tspan x="10" y="794">    │ ├── minimist@1.2.0 </tspan>
<tspan x="10" y="810">    │ ├─┬ normalize-package-data@2.3.6 </tspan>
<tspan x="10" y="826">    │ │ ├── hosted-git-info@2.4.2 </tspan>
<tspan x="10" y="842">    │ │ ├─┬ is-builtin-module@1.0.0 </tspan>
<tspan x="10" y="858">    │ │ │ └── builtin-modules@1.1.1 </tspan>
<tspan x="10" y="874">    │ │ └─┬ validate-npm-package-license@3.0.1 </tspan>
<tspan x="10" y="890">    │ │   ├─┬ spdx-correct@1.0.2 </tspan>
<tspan x="10" y="906">    │ │   │ └── spdx-license-ids@1.2.2 </tspan>
<tspan x="10" y="922">    │ │   └── spdx-expression-parse@1.0.4 </tspan>
<tspan x="10" y="938">    │ ├── object-assign@4.1.1 </tspan>
<tspan x="10" y="954">    │ ├─┬ read-pkg-up@1.0.1 </tspan>
<tspan x="10" y="970">    │ │ ├─┬ find-up@1.1.2 </tspan>
<tspan x="10" y="986">    │ │ │ ├── path-exists@2.1.0 </tspan>
<tspan x="10" y="1002">    │ │ │ └─┬ pinkie-promise@2.0.1 </tspan>
<tspan x="10" y="1018">    │ │ │   └── pinkie@2.0.4 </tspan>
<tspan x="10" y="1034">    │ │ └─┬ read-pkg@1.1.0 </tspan>
<tspan x="10" y="1050">    │ │   ├─┬ load-json-file@1.1.0 </tspan>
<tspan x="10" y="1066">    │ │   │ ├─┬ parse-json@2.2.0 </tspan>
<tspan x="10" y="1082">    │ │   │ │ └─┬ error-ex@1.3.1 </tspan>
<tspan x="10" y="1098">    │ │   │ │   └── is-arrayish@0.2.1 </tspan>
<tspan x="10" y="1114">    │ │   │ ├── pify@2.3.0 </tspan>
<tspan x="10" y="1130">    │ │   │ └─┬ strip-bom@2.0.0 </tspan>
<tspan x="10" y="1146">    │ │   │   └── is-utf8@0.2.1 </tspan>
<tspan x="10" y="1162">    │ │   └── path-type@1.1.0 </tspan>
<tspan x="10" y="1178">    │ ├─┬ redent@1.0.0 </tspan>
<tspan x="10" y="1194">    │ │ ├─┬ indent-string@2.1.0 </tspan>
<tspan x="10" y="1210">    │ │ │ └─┬ repeating@2.0.1 </tspan>
<tspan x="10" y="1226">    │ │ │   └── is-finite@1.0.2 </tspan>
<tspan x="10" y="1242">    │ │ └── strip-indent@1.0.1 </tspan>
<tspan x="10" y="1258">    │ └── trim-newlines@1.0.0 </tspan>
<tspan x="10" y="1274">    ├── nan@2.6.2 </tspan>
<tspan x="10" y="1290">    ├─┬ node-gyp@3.6.0 </tspan>
<tspan x="10" y="1306">    │ ├── fstream@1.0.11 </tspan>
<tspan x="10" y="1322">    │ ├── graceful-fs@4.1.11 </tspan>
<tspan x="10" y="1338">    │ ├─┬ nopt@3.0.6 </tspan>
<tspan x="10" y="1354">    │ │ └── abbrev@1.1.0 </tspan>
<tspan x="10" y="1370">    │ ├─┬ osenv@0.1.4 </tspan>
<tspan x="10" y="1386">    │ │ ├── os-homedir@1.0.2 </tspan>
<tspan x="10" y="1402">    │ │ └── os-tmpdir@1.0.2 </tspan>
<tspan x="10" y="1418">    │ ├── rimraf@2.6.1 </tspan>
<tspan x="10" y="1434">    │ ├── semver@5.3.0 </tspan>
<tspan x="10" y="1450">    │ └─┬ tar@2.2.1 </tspan>
<tspan x="10" y="1466">    │   └── block-stream@0.0.9 </tspan>
<tspan x="10" y="1482">    ├─┬ npmlog@4.0.2 </tspan>
<tspan x="10" y="1498">    │ ├─┬ are-we-there-yet@1.1.2 </tspan>
<tspan x="10" y="1514">    │ │ └── delegates@1.0.0 </tspan>
<tspan x="10" y="1530">    │ ├── console-control-strings@1.1.0 </tspan>
<tspan x="10" y="1546">    │ ├─┬ gauge@2.7.3 </tspan>
<tspan x="10" y="1562">    │ │ ├── aproba@1.1.1 </tspan>
<tspan x="10" y="1578">    │ │ ├── has-unicode@2.0.1 </tspan>
<tspan x="10" y="1594">    │ │ ├─┬ string-width@1.0.2 </tspan>
<tspan x="10" y="1610">    │ │ │ ├── code-point-at@1.1.0 </tspan>
<tspan x="10" y="1626">    │ │ │ └─┬ is-fullwidth-code-point@1.0.0 </tspan>
<tspan x="10" y="1642">    │ │ │   └── number-is-nan@1.0.1 </tspan>
<tspan x="10" y="1658">    │ │ └── wide-align@1.1.0 </tspan>
<tspan x="10" y="1674">    │ └── set-blocking@2.0.0 </tspan>
<tspan x="10" y="1690">    ├─┬ request@2.81.0 </tspan>
<tspan x="10" y="1706">    │ ├── aws-sign2@0.6.0 </tspan>
<tspan x="10" y="1722">    │ ├── aws4@1.6.0 </tspan>
<tspan x="10" y="1738">    │ ├── caseless@0.12.0 </tspan>
<tspan x="10" y="1754">    │ ├─┬ combined-stream@1.0.5 </tspan>
<tspan x="10" y="1770">    │ │ └── delayed-stream@1.0.0 </tspan>
<tspan x="10" y="1786">    │ ├── extend@3.0.0 </tspan>
<tspan x="10" y="1802">    │ ├── forever-agent@0.6.1 </tspan>
<tspan x="10" y="1818">    │ ├─┬ form-data@2.1.4 </tspan>
<tspan x="10" y="1834">    │ │ └── asynckit@0.4.0 </tspan>
<tspan x="10" y="1850">    │ ├─┬ har-validator@4.2.1 </tspan>
<tspan x="10" y="1866">    │ │ ├─┬ ajv@4.11.6 </tspan>
<tspan x="10" y="1882">    │ │ │ ├── co@4.6.0 </tspan>
<tspan x="10" y="1898">    │ │ │ └─┬ json-stable-stringify@1.0.1 </tspan>
<tspan x="10" y="1914">    │ │ │   └── jsonify@0.0.0 </tspan>
<tspan x="10" y="1930">    │ │ └── har-schema@1.0.5 </tspan>
<tspan x="10" y="1946">    │ ├─┬ hawk@3.1.3 </tspan>
<tspan x="10" y="1962">    │ │ ├── boom@2.10.1 </tspan>
<tspan x="10" y="1978">    │ │ ├── cryptiles@2.0.5 </tspan>
<tspan x="10" y="1994">    │ │ ├── hoek@2.16.3 </tspan>
<tspan x="10" y="2010">    │ │ └── sntp@1.0.9 </tspan>
<tspan x="10" y="2026">    │ ├─┬ http-signature@1.1.1 </tspan>
<tspan x="10" y="2042">    │ │ ├── assert-plus@0.2.0 </tspan>
<tspan x="10" y="2058">    │ │ ├─┬ jsprim@1.4.0 </tspan>
<tspan x="10" y="2074">    │ │ │ ├── assert-plus@1.0.0 </tspan>
<tspan x="10" y="2090">    │ │ │ ├── extsprintf@1.0.2 </tspan>
<tspan x="10" y="2106">    │ │ │ ├── json-schema@0.2.3 </tspan>
<tspan x="10" y="2122">    │ │ │ └── verror@1.3.6 </tspan>
<tspan x="10" y="2138">    │ │ └─┬ sshpk@1.13.0 </tspan>
<tspan x="10" y="2154">    │ │   ├── asn1@0.2.3 </tspan>
<tspan x="10" y="2170">    │ │   ├── assert-plus@1.0.0 </tspan>
<tspan x="10" y="2186">    │ │   ├── bcrypt-pbkdf@1.0.1 </tspan>
<tspan x="10" y="2202">    │ │   ├─┬ dashdash@1.14.1 </tspan>
<tspan x="10" y="2218">    │ │   │ └── assert-plus@1.0.0 </tspan>
<tspan x="10" y="2234">    │ │   ├── ecc-jsbn@0.1.1 </tspan>
<tspan x="10" y="2250">    │ │   ├─┬ getpass@0.1.6 </tspan>
<tspan x="10" y="2266">    │ │   │ └── assert-plus@1.0.0 </tspan>
<tspan x="10" y="2282">    │ │   ├── jodid25519@1.0.2 </tspan>
<tspan x="10" y="2298">    │ │   ├── jsbn@0.1.1 </tspan>
<tspan x="10" y="2314">    │ │   └── tweetnacl@0.14.5 </tspan>
<tspan x="10" y="2330">    │ ├── is-typedarray@1.0.0 </tspan>
<tspan x="10" y="2346">    │ ├── isstream@0.1.2 </tspan>
<tspan x="10" y="2362">    │ ├── json-stringify-safe@5.0.1 </tspan>
<tspan x="10" y="2378">    │ ├─┬ mime-types@2.1.15 </tspan>
<tspan x="10" y="2394">    │ │ └── mime-db@1.27.0 </tspan>
<tspan x="10" y="2410">    │ ├── oauth-sign@0.8.2 </tspan>
<tspan x="10" y="2426">    │ ├── performance-now@0.2.0 </tspan>
<tspan x="10" y="2442">    │ ├── qs@6.4.0 </tspan>
<tspan x="10" y="2458">    │ ├── safe-buffer@5.0.1 </tspan>
<tspan x="10" y="2474">    │ ├── stringstream@0.0.5 </tspan>
<tspan x="10" y="2490">    │ ├─┬ tough-cookie@2.3.2 </tspan>
<tspan x="10" y="2506">    │ │ └── punycode@1.4.1 </tspan>
<tspan x="10" y="2522">    │ ├── tunnel-agent@0.6.0 </tspan>
<tspan x="10" y="2538">    │ └── uuid@3.0.1 </tspan>
<tspan x="10" y="2554">    ├─┬ sass-graph@2.1.2 </tspan>
<tspan x="10" y="2570">    │ ├── lodash@4.16.6 </tspan>
<tspan x="10" y="2586">    │ └─┬ yargs@4.8.1 </tspan>
<tspan x="10" y="2602">    │   ├─┬ cliui@3.2.0 </tspan>
<tspan x="10" y="2618">    │   │ └── wrap-ansi@2.1.0 </tspan>
<tspan x="10" y="2634">    │   ├── get-caller-file@1.0.2 </tspan>
<tspan x="10" y="2650">    │   ├─┬ os-locale@1.4.0 </tspan>
<tspan x="10" y="2666">    │   │ └─┬ lcid@1.0.0 </tspan>
<tspan x="10" y="2682">    │   │   └── invert-kv@1.0.0 </tspan>
<tspan x="10" y="2698">    │   ├── require-directory@2.1.1 </tspan>
<tspan x="10" y="2714">    │   ├── require-main-filename@1.0.1 </tspan>
<tspan x="10" y="2730">    │   ├── which-module@1.0.0 </tspan>
<tspan x="10" y="2746">    │   ├── window-size@0.2.0 </tspan>
<tspan x="10" y="2762">    │   ├── y18n@3.2.1 </tspan>
<tspan x="10" y="2778">    │   └─┬ yargs-parser@2.4.1 </tspan>
<tspan x="10" y="2794">    │     └── camelcase@3.0.0 </tspan>
<tspan x="10" y="2810">    └─┬ stdout-stream@1.4.0 </tspan>
<tspan x="10" y="2826">      └─┬ readable-stream@2.2.9 </tspan>
<tspan x="10" y="2842">        ├── buffer-shims@1.0.0 </tspan>
<tspan x="10" y="2858">        ├── core-util-is@1.0.2 </tspan>
<tspan x="10" y="2874">        ├── isarray@1.0.0 </tspan>
<tspan x="10" y="2890">        ├── process-nextick-args@1.0.7 </tspan>
<tspan x="10" y="2906">        ├── string_decoder@1.0.0 </tspan>
<tspan x="10" y="2922">        └── util-deprecate@1.0.2</tspan>
</text>
</svg>
